HIERARCHY
ROOT root
{
	OFFSET 0.000000 0.000000 0.000000
	CHANNELS 6 Xposition Yposition Zposition Zrotation Yrotation Xrotation
	JOINT lhip
	{
		OFFSET 0.058581 -0.082280 -0.017664
		CHANNELS 3 Zrotation Yrotation Xrotation
		JOINT lknee
		{
			OFFSET 0.043451 -0.386469 0.008037
			CHANNELS 3 Zrotation Yrotation Xrotation
			JOINT lankle
			{
				OFFSET -0.014790 -0.426874 -0.037428
				CHANNELS 3 Zrotation Yrotation Xrotation
				JOINT ltoe
				{
					OFFSET 0.041054 -0.060286 0.122042
					CHANNELS 3 Zrotation Yrotation Xrotation
					End Site
					{
						OFFSET 0.000000 0.000000 0.000000
					}
				}
			}
		}
	}
	JOINT rhip
	{
		OFFSET -0.060310 -0.090513 -0.013543
		CHANNELS 3 Zrotation Yrotation Xrotation
		JOINT rknee
		{
			OFFSET -0.043257 -0.383688 -0.004843
			CHANNELS 3 Zrotation Yrotation Xrotation
			JOINT rankle
			{
				OFFSET 0.019056 -0.420046 -0.034562
				CHANNELS 3 Zrotation Yrotation Xrotation
				JOINT rtoe
				{
					OFFSET -0.034840 -0.062106 0.130323
					CHANNELS 3 Zrotation Yrotation Xrotation
					End Site
					{
						OFFSET 0.000000 0.000000 0.000000
					}
				}
			}
		}
	}
	JOINT lowerback
	{
		OFFSET 0.004439 0.124404 -0.038385
		CHANNELS 3 Zrotation Yrotation Xrotation
		JOINT upperback
		{
			OFFSET 0.004488 0.137956 0.026820
			CHANNELS 3 Zrotation Yrotation Xrotation
			JOINT chest
			{
				OFFSET -0.002265 0.056032 0.002855
				CHANNELS 3 Zrotation Yrotation Xrotation
				JOINT lowerneck
				{
					OFFSET -0.013390 0.211636 -0.033468
					CHANNELS 3 Zrotation Yrotation Xrotation
					JOINT upperneck
					{
						OFFSET 0.010113 0.088937 0.050410
						CHANNELS 3 Zrotation Yrotation Xrotation
						End Site
						{
							OFFSET 0.000000 0.000000 0.000000
						}
					}
				}
				JOINT lclavicle
				{
					OFFSET 0.071702 0.114000 -0.018898
					CHANNELS 3 Zrotation Yrotation Xrotation
					JOINT lshoulder
					{
						OFFSET 0.122921 0.045205 -0.019046
						CHANNELS 3 Zrotation Yrotation Xrotation
						JOINT lelbow
						{
							OFFSET 0.255332 -0.015649 -0.022946
							CHANNELS 3 Zrotation Yrotation Xrotation
							JOINT lwrist
							{
								OFFSET 0.265709 0.012698 -0.007375
								CHANNELS 3 Zrotation Yrotation Xrotation
								End Site
								{
									OFFSET 0.000000 0.000000 0.000000
								}
							}
						}
					}
				}
				JOINT rclavicle
				{
					OFFSET -0.082954 0.112472 -0.023707
					CHANNELS 3 Zrotation Yrotation Xrotation
					JOINT rshoulder
					{
						OFFSET -0.113228 0.046853 -0.008472
						CHANNELS 3 Zrotation Yrotation Xrotation
						JOINT relbow
						{
							OFFSET -0.260127 -0.014369 -0.031269
							CHANNELS 3 Zrotation Yrotation Xrotation
							JOINT rwrist
							{
								OFFSET -0.269108 0.006794 -0.006027
								CHANNELS 3 Zrotation Yrotation Xrotation
								End Site
								{
									OFFSET 0.000000 0.000000 0.000000
								}
							}
						}
					}
				}
			}
		}
	}
}
MOTION
Frames: 8
Frame Time: 0.033333
-1.583468 0.290444 1.010832 90.522448 -3.064353 85.828658 -6.197573 -1.850685 -1.764148 -4.643424 -8.739111 1.892528 6.638884 8.982260 -4.875738 0.000000 -0.000000 0.000000 -5.568719 -0.743609 -8.748860 -1.957605 -1.732254 63.883128 2.786476 -14.730497 -3.066173 0.000000 -0.000000 0.000000 -5.601042 1.797950 14.087089 0.157518 0.460288 -3.792802 -0.537162 -0.113543 1.855686 3.400868 5.640690 -14.930468 -3.046028 -1.076951 3.606009 -24.202862 4.708577 0.635596 -49.681547 -4.905806 7.714489 7.582408 -28.048142 5.316008 -6.478296 -3.576253 -9.339422 29.780308 2.545562 -1.345817 53.008137 9.884170 11.068848 -17.581408 13.522123 -20.554343 5.747604 3.231778 -10.429936 
-1.560854 0.295200 1.012369 92.700830 -2.604249 85.018707 -6.520442 -1.235777 0.967089 -4.159126 -10.659563 1.165180 7.097920 8.954191 -5.245522 0.000000 -0.000000 0.000000 -5.139780 -0.276298 -11.659405 -1.045612 -2.732137 65.869618 3.428052 -14.036896 -4.404678 0.000000 -0.000000 0.000000 -5.489669 0.557202 14.499510 0.488716 0.147041 -4.019255 -0.527456 -0.799905 1.761000 3.555180 6.100988 -13.668732 -3.092713 -1.147095 4.232390 -23.776343 3.734427 0.597369 -49.286783 -6.240652 7.679130 8.058639 -28.466929 4.602487 -5.971415 -2.983765 -8.249874 29.656484 2.392381 -1.766909 53.232661 9.281350 11.115404 -18.102195 14.591557 -20.635476 6.038816 3.503190 -10.509246 
-1.538402 0.299268 1.013425 94.616582 -2.025658 84.509385 -6.434103 -0.635276 3.174536 -3.877767 -12.408726 0.943778 7.125084 9.188691 -6.183705 0.000000 -0.000000 0.000000 -4.856961 0.058434 -14.593851 -0.154600 -3.703738 65.491637 4.099442 -13.007704 -5.594323 0.000000 -0.000000 0.000000 -5.257751 -0.656573 14.757997 0.789757 -0.157866 -4.265572 -0.420447 -1.400287 1.758466 3.720691 6.508179 -13.384313 -3.252544 -1.426991 5.080110 -23.579175 3.083085 -0.006658 -48.761507 -7.456285 7.786057 8.218298 -29.012081 3.958739 -5.302363 -3.041371 -7.725533 29.819360 2.009853 -2.280051 53.208500 8.875374 11.176901 -18.623535 15.680150 -20.484356 5.773827 3.659253 -10.109861 
-1.516954 0.302903 1.014196 96.604203 -1.272586 83.596542 -5.836431 -0.043907 5.626720 -3.751115 -14.010425 1.118974 6.723681 8.800705 -7.351241 0.000000 -0.000000 0.000000 -4.848747 0.054797 -16.689944 -0.301288 -5.315623 62.836064 4.633824 -12.748598 -7.314018 0.000000 -0.000000 0.000000 -4.858604 -1.614993 15.608579 1.103705 -0.447313 -4.214137 -0.150001 -2.054266 1.690138 3.653219 6.986648 -12.900084 -3.196068 -1.560098 5.434644 -23.320178 1.942797 0.055535 -48.564557 -8.978115 7.652991 8.737019 -29.785683 2.936054 -4.861741 -2.968790 -7.725161 29.792921 1.977719 -2.773576 53.069495 8.697193 10.842978 -19.015200 16.366148 -20.669657 5.738997 3.909214 -10.085718 
-1.495411 0.305963 1.014788 98.163130 -0.723828 83.086882 -5.095574 0.772762 7.703386 -3.879973 -15.512553 1.138248 6.083713 8.279966 -8.584764 0.000000 -0.000000 0.000000 -5.120086 -0.393564 -18.753936 -0.891545 -6.734354 58.615107 5.240798 -12.854933 -8.332095 0.000000 -0.000000 0.000000 -4.454108 -2.600574 16.434897 1.206218 -0.844505 -4.567476 0.047924 -2.542718 1.558075 3.595591 7.286766 -12.742714 -3.185136 -1.445351 5.941898 -23.252664 1.533796 -0.132624 -48.102058 -10.233628 7.469557 8.667942 -30.971294 2.282093 -3.811111 -3.151141 -7.691464 30.033849 1.798512 -3.031267 52.895861 8.569543 10.752554 -19.435681 17.246072 -20.758123 5.134022 4.040311 -9.535515 
-1.474928 0.308359 1.014388 99.433458 -0.254756 82.826456 -4.275651 1.538343 9.490337 -3.964109 -16.592144 0.985292 5.680105 7.619622 -9.486248 0.000000 -0.000000 0.000000 -5.516859 -1.205644 -20.784686 -1.358623 -8.158287 52.980772 5.787587 -12.764710 -9.276239 0.000000 -0.000000 0.000000 -4.026038 -3.145769 17.042247 1.237006 -1.081866 -4.785168 0.310650 -3.015389 1.346220 3.403904 7.478182 -12.458618 -3.049068 -1.431342 6.105201 -22.915941 0.718839 0.066298 -48.231242 -11.637292 7.342325 8.860221 -31.729441 1.564895 -2.896067 -3.526859 -8.225382 30.014820 1.776749 -2.891200 52.823895 8.313933 10.604751 -19.992873 18.155672 -20.936671 4.401061 4.178166 -9.434396 
-1.453477 0.310534 1.014072 100.394758 -0.045795 82.854254 -3.822558 2.284082 11.251596 -3.686558 -18.045990 0.572748 5.371346 7.445361 -10.013891 0.000000 -0.000000 0.000000 -5.771200 -2.126261 -22.630327 -1.394584 -8.921658 46.469013 6.648198 -12.691835 -9.223240 0.000000 -0.000000 0.000000 -3.462286 -3.931367 17.929735 1.215779 -1.193497 -4.953626 0.560354 -4.130027 1.800579 2.333006 7.732039 -15.390416 -3.226086 -1.108954 6.600316 -23.586996 1.860687 -2.276003 -47.646103 -12.447107 7.327312 7.483406 -33.407951 2.701303 -2.155201 -3.936013 -8.354053 29.894534 1.125533 -4.177662 52.976535 9.000788 11.100683 -19.693646 19.220111 -20.450299 4.355593 4.624985 -8.223087 
-1.433639 0.311627 1.011347 100.770871 0.211786 83.059858 -3.265944 2.642638 12.372563 -3.630006 -18.083701 0.662810 5.272650 7.050347 -11.057696 0.000000 -0.000000 0.000000 -5.784082 -2.595731 -24.359168 -1.339420 -9.985363 39.160147 7.264693 -11.552467 -8.206523 0.000000 -0.000000 0.000000 -3.501383 -3.690681 17.512076 1.136967 -1.341263 -4.964036 0.811713 -3.619960 1.211598 3.196704 7.544077 -12.649026 -2.555379 -1.536126 6.394066 -22.579405 -0.349189 0.119660 -48.632049 -14.101087 7.553596 9.078585 -33.577147 0.250863 -1.777828 -4.022564 -8.191073 30.225269 1.557457 -2.968507 52.574724 8.409989 10.382957 -20.295944 19.578236 -21.497130 4.802949 4.427635 -9.214613 
